<?xml version="1.0" encoding="utf-8"?>
<svg xmlns="http://www.w3.org/2000/svg" style="margin: auto; background: none; display: block; shape-rendering: auto;" width="162" height="53" preserveAspectRatio="xMidYMid">
<style type="text/css">
  text {
    text-anchor: middle; font-size: 24px; opacity: 0;
  }
</style>
<g style="transform-origin: 81px 26.5px; transform: scale(0.363636);">
<g transform="translate(81,26.5)">
  <g transform="translate(0,0)"><g class="path" style="opacity: 1; transform-origin: -159.42px 7.56846px; animation: 1s linear -0.6s infinite normal forwards running fade-a24bd569-3728-4132-a4cf-438e485a2a8e;"><path d="M2.64-29.70L3.89-34.32L3.89-34.32Q9.97-34.32 11.48-29.50L11.48-29.50L11.48-29.50Q11.95-30.23 12.90-31.22L12.90-31.22L12.90-31.22Q13.86-32.21 15.25-33.07L15.25-33.07L15.25-33.07Q16.63-33.92 18.41-34.52L18.41-34.52L18.41-34.52Q20.20-35.11 22.37-35.11L22.37-35.11L22.37-35.11Q25.34-35.11 28.08-33.92L28.08-33.92L28.08-33.92Q30.82-32.74 32.90-30.49L32.90-30.49L32.90-30.49Q34.98-28.25 36.23-24.95L36.23-24.95L36.23-24.95Q37.49-21.65 37.49-17.49L37.49-17.49L37.49-17.49Q37.49-13.40 36.27-10.03L36.27-10.03L36.27-10.03Q35.05-6.67 32.97-4.26L32.97-4.26L32.97-4.26Q30.89-1.85 28.18-0.53L28.18-0.53L28.18-0.53Q25.48 0.79 22.51 0.79L22.51 0.79L22.51 0.79Q19.40 0.79 16.80-0.43L16.80-0.43L16.80-0.43Q14.19-1.65 12.47-3.23L12.47-3.23L12.47 14.52L6.53 14.52L6.53-25.54L6.53-25.54Q6.53-27.79 5.45-28.74L5.45-28.74L5.45-28.74Q4.36-29.70 2.64-29.70L2.64-29.70zM31.42-17.29L31.42-17.29L31.42-17.29Q31.42-20.26 30.59-22.61L30.59-22.61L30.59-22.61Q29.77-24.95 28.35-26.60L28.35-26.60L28.35-26.60Q26.93-28.25 25.05-29.11L25.05-29.11L25.05-29.11Q23.17-29.96 21.05-29.96L21.05-29.96L21.05-29.96Q18.22-29.96 15.94-28.55L15.94-28.55L15.94-28.55Q13.66-27.13 12.47-25.48L12.47-25.48L12.47-8.58L12.47-8.58Q14.19-6.80 16.40-5.64L16.40-5.64L16.40-5.64Q18.61-4.49 21.32-4.49L21.32-4.49L21.32-4.49Q23.56-4.49 25.41-5.41L25.41-5.41L25.41-5.41Q27.26-6.34 28.61-8.02L28.61-8.02L28.61-8.02Q29.96-9.70 30.69-12.04L30.69-12.04L30.69-12.04Q31.42-14.39 31.42-17.29" fill="#28166f" stroke="none" stroke-width="none" transform="translate(-179.4849853515625,17.863455810546874)" style="fill: rgb(40, 22, 111);"></path></g><g class="path" style="opacity: 1; transform-origin: -125.3px -6.16154px; animation: 1s linear -0.54s infinite normal forwards running fade-a24bd569-3728-4132-a4cf-438e485a2a8e;"><path d="M51.35-48.84L51.35-11.35L51.35-11.35Q51.35-7.79 52.83-6.07L52.83-6.07L52.83-6.07Q54.32-4.36 56.96-4.36L56.96-4.36L56.96-4.36Q58.21-4.36 59.40-4.65L59.40-4.65L59.40-4.65Q60.59-4.95 61.51-5.35L61.51-5.35L62.96-0.53L62.96-0.53Q61.78 0 60.03 0.40L60.03 0.40L60.03 0.40Q58.28 0.79 56.17 0.79L56.17 0.79L56.17 0.79Q53.86 0.79 51.91 0.13L51.91 0.13L51.91 0.13Q49.96-0.53 48.51-1.91L48.51-1.91L48.51-1.91Q47.06-3.30 46.23-5.48L46.23-5.48L46.23-5.48Q45.41-7.66 45.41-10.76L45.41-10.76L45.41-48.84L51.35-48.84" fill="#28166f" stroke="none" stroke-width="none" transform="translate(-179.4849853515625,17.863455810546874)" style="fill: rgb(40, 22, 111);"></path></g><g class="path" style="opacity: 1; transform-origin: -99.065px 0.703457px; animation: 1s linear -0.48s infinite normal forwards running fade-a24bd569-3728-4132-a4cf-438e485a2a8e;"><path d="M95.37-14.72L71.35-14.72L71.35-14.72Q71.94-9.90 74.71-7.19L74.71-7.19L74.71-7.19Q77.48-4.49 82.04-4.49L82.04-4.49L82.04-4.49Q85.01-4.49 87.38-5.12L87.38-5.12L87.38-5.12Q89.76-5.74 91.94-6.73L91.94-6.73L93.32-1.65L93.32-1.65Q90.95-0.53 87.98 0.13L87.98 0.13L87.98 0.13Q85.01 0.79 81.31 0.79L81.31 0.79L81.31 0.79Q77.62 0.79 74.65-0.43L74.65-0.43L74.65-0.43Q71.68-1.65 69.60-3.93L69.60-3.93L69.60-3.93Q67.52-6.20 66.40-9.54L66.40-9.54L66.40-9.54Q65.27-12.87 65.27-17.16L65.27-17.16L65.27-17.16Q65.27-20.99 66.40-24.29L66.40-24.29L66.40-24.29Q67.52-27.59 69.56-30.00L69.56-30.00L69.56-30.00Q71.61-32.41 74.45-33.76L74.45-33.76L74.45-33.76Q77.29-35.11 80.78-35.11L80.78-35.11L80.78-35.11Q84.48-35.11 87.25-33.86L87.25-33.86L87.25-33.86Q90.02-32.60 91.87-30.43L91.87-30.43L91.87-30.43Q93.72-28.25 94.64-25.34L94.64-25.34L94.64-25.34Q95.57-22.44 95.57-19.21L95.57-19.21L95.57-19.21Q95.57-16.90 95.37-14.72L95.37-14.72zM80.65-29.96L80.65-29.96L80.65-29.96Q76.76-29.96 74.28-27.32L74.28-27.32L74.28-27.32Q71.81-24.68 71.28-19.54L71.28-19.54L90.09-19.54L90.09-19.54Q90.09-24.55 87.58-27.26L87.58-27.26L87.58-27.26Q85.07-29.96 80.65-29.96" fill="#28166f" stroke="none" stroke-width="none" transform="translate(-179.4849853515625,17.863455810546874)" style="fill: rgb(40, 22, 111);"></path></g><g class="path" style="opacity: 1; transform-origin: -60.75px 0.703457px; animation: 1s linear -0.42s infinite normal forwards running fade-a24bd569-3728-4132-a4cf-438e485a2a8e;"><path d="M101.18-16.96L101.18-16.96L101.18-16.96Q101.18-20.79 102.37-24.12L102.37-24.12L102.37-24.12Q103.55-27.46 105.70-29.90L105.70-29.90L105.70-29.90Q107.84-32.34 110.85-33.73L110.85-33.73L110.85-33.73Q113.85-35.11 117.41-35.11L117.41-35.11L117.41-35.11Q120.38-35.11 122.79-34.09L122.79-34.09L122.79-34.09Q125.20-33.07 126.98-31.55L126.98-31.55L126.98-34.32L132.40-34.32L132.40-8.32L132.40-8.32Q132.40-5.81 133.62-5.05L133.62-5.05L133.62-5.05Q134.84-4.29 136.29-4.29L136.29-4.29L135.04 0.33L135.04 0.33Q128.70 0.33 127.38-4.82L127.38-4.82L127.38-4.82Q126.59-3.76 125.56-2.74L125.56-2.74L125.56-2.74Q124.54-1.72 123.22-0.92L123.22-0.92L123.22-0.92Q121.90-0.13 120.25 0.33L120.25 0.33L120.25 0.33Q118.60 0.79 116.62 0.79L116.62 0.79L116.62 0.79Q113.39 0.79 110.58-0.46L110.58-0.46L110.58-0.46Q107.78-1.72 105.70-4.03L105.70-4.03L105.70-4.03Q103.62-6.34 102.40-9.60L102.40-9.60L102.40-9.60Q101.18-12.87 101.18-16.96zM117.94-4.49L117.94-4.49L117.94-4.49Q120.45-4.49 122.69-5.68L122.69-5.68L122.69-5.68Q124.94-6.86 126.46-8.78L126.46-8.78L126.46-27.19L126.46-27.19Q124.67-28.45 122.53-29.21L122.53-29.21L122.53-29.21Q120.38-29.96 118.01-29.96L118.01-29.96L118.01-29.96Q115.63-29.96 113.65-29.04L113.65-29.04L113.65-29.04Q111.67-28.12 110.25-26.43L110.25-26.43L110.25-26.43Q108.83-24.75 108.04-22.37L108.04-22.37L108.04-22.37Q107.25-20.00 107.25-17.16L107.25-17.16L107.25-17.16Q107.25-14.39 108.04-12.04L108.04-12.04L108.04-12.04Q108.83-9.70 110.29-8.02L110.29-8.02L110.29-8.02Q111.74-6.34 113.69-5.41L113.69-5.41L113.69-5.41Q115.63-4.49 117.94-4.49" fill="#28166f" stroke="none" stroke-width="none" transform="translate(-179.4849853515625,17.863455810546874)" style="fill: rgb(40, 22, 111);"></path></g><g class="path" style="opacity: 1; transform-origin: -25.275px 0.703457px; animation: 1s linear -0.36s infinite normal forwards running fade-a24bd569-3728-4132-a4cf-438e485a2a8e;"><path d="M141.24-2.77L143.75-7.72L143.75-7.72Q145.46-6.20 148.07-5.28L148.07-5.28L148.07-5.28Q150.68-4.36 153.65-4.36L153.65-4.36L153.65-4.36Q157.34-4.36 159.23-5.58L159.23-5.58L159.23-5.58Q161.11-6.80 161.11-8.71L161.11-8.71L161.11-8.71Q161.11-9.70 160.74-10.56L160.74-10.56L160.74-10.56Q160.38-11.42 159.42-12.21L159.42-12.21L159.42-12.21Q158.47-13.00 156.82-13.76L156.82-13.76L156.82-13.76Q155.17-14.52 152.53-15.44L152.53-15.44L152.53-15.44Q147.64-17.09 145.27-19.37L145.27-19.37L145.27-19.37Q142.89-21.65 142.89-25.67L142.89-25.67L142.89-25.67Q142.89-27.65 143.78-29.37L143.78-29.37L143.78-29.37Q144.67-31.09 146.36-32.37L146.36-32.37L146.36-32.37Q148.04-33.66 150.45-34.39L150.45-34.39L150.45-34.39Q152.86-35.11 155.96-35.11L155.96-35.11L155.96-35.11Q159.32-35.11 161.87-34.42L161.87-34.42L161.87-34.42Q164.41-33.73 166.45-32.67L166.45-32.67L164.80-27.79L164.80-27.79Q163.02-28.84 160.74-29.50L160.74-29.50L160.74-29.50Q158.47-30.16 155.69-30.16L155.69-30.16L155.69-30.16Q152.26-30.16 150.48-28.78L150.48-28.78L150.48-28.78Q148.70-27.39 148.70-25.74L148.70-25.74L148.70-25.74Q148.70-24.95 149.00-24.29L149.00-24.29L149.00-24.29Q149.29-23.63 150.08-23.03L150.08-23.03L150.08-23.03Q150.88-22.44 152.20-21.85L152.20-21.85L152.20-21.85Q153.52-21.25 155.50-20.59L155.50-20.59L155.50-20.59Q158.73-19.47 160.97-18.32L160.97-18.32L160.97-18.32Q163.22-17.16 164.60-15.77L164.60-15.77L164.60-15.77Q165.99-14.39 166.58-12.77L166.58-12.77L166.58-12.77Q167.18-11.15 167.18-9.17L167.18-9.17L167.18-9.17Q167.18-6.86 166.19-5.02L166.19-5.02L166.19-5.02Q165.20-3.17 163.42-1.88L163.42-1.88L163.42-1.88Q161.63-0.59 159.09 0.10L159.09 0.10L159.09 0.10Q156.55 0.79 153.45 0.79L153.45 0.79L153.45 0.79Q149.49 0.79 146.39-0.20L146.39-0.20L146.39-0.20Q143.29-1.19 141.24-2.77L141.24-2.77" fill="#28166f" stroke="none" stroke-width="none" transform="translate(-179.4849853515625,17.863455810546874)" style="fill: rgb(40, 22, 111);"></path></g><g class="path" style="opacity: 1; transform-origin: 8.45001px 0.703457px; animation: 1s linear -0.3s infinite normal forwards running fade-a24bd569-3728-4132-a4cf-438e485a2a8e;"><path d="M202.88-14.72L178.86-14.72L178.86-14.72Q179.45-9.90 182.23-7.19L182.23-7.19L182.23-7.19Q185.00-4.49 189.55-4.49L189.55-4.49L189.55-4.49Q192.52-4.49 194.90-5.12L194.90-5.12L194.90-5.12Q197.27-5.74 199.45-6.73L199.45-6.73L200.84-1.65L200.84-1.65Q198.46-0.53 195.49 0.13L195.49 0.13L195.49 0.13Q192.52 0.79 188.83 0.79L188.83 0.79L188.83 0.79Q185.13 0.79 182.16-0.43L182.16-0.43L182.16-0.43Q179.19-1.65 177.11-3.93L177.11-3.93L177.11-3.93Q175.03-6.20 173.91-9.54L173.91-9.54L173.91-9.54Q172.79-12.87 172.79-17.16L172.79-17.16L172.79-17.16Q172.79-20.99 173.91-24.29L173.91-24.29L173.91-24.29Q175.03-27.59 177.08-30.00L177.08-30.00L177.08-30.00Q179.12-32.41 181.96-33.76L181.96-33.76L181.96-33.76Q184.80-35.11 188.30-35.11L188.30-35.11L188.30-35.11Q191.99-35.11 194.77-33.86L194.77-33.86L194.77-33.86Q197.54-32.60 199.39-30.43L199.39-30.43L199.39-30.43Q201.23-28.25 202.16-25.34L202.16-25.34L202.16-25.34Q203.08-22.44 203.08-19.21L203.08-19.21L203.08-19.21Q203.08-16.90 202.88-14.72L202.88-14.72zM188.17-29.96L188.17-29.96L188.17-29.96Q184.27-29.96 181.80-27.32L181.80-27.32L181.80-27.32Q179.32-24.68 178.79-19.54L178.79-19.54L197.60-19.54L197.60-19.54Q197.60-24.55 195.10-27.26L195.10-27.26L195.10-27.26Q192.59-29.96 188.17-29.96" fill="#28166f" stroke="none" stroke-width="none" transform="translate(-179.4849853515625,17.863455810546874)" style="fill: rgb(40, 22, 111);"></path></g><g class="path" style="opacity: 1; transform-origin: 73.03px 0.538456px; animation: 1s linear -0.24s infinite normal forwards running fade-a24bd569-3728-4132-a4cf-438e485a2a8e;"><path d="M263.80-6.73L272.58-34.65L277.86-32.74L266.97 0L260.44 0L252.52-25.54L244.53 0L238.00 0L227.17-32.74L232.65-34.65L241.49-6.73L249.55-31.88L255.95-31.88L263.80-6.73" fill="#28166f" stroke="none" stroke-width="none" transform="translate(-179.4849853515625,17.863455810546874)" style="fill: rgb(40, 22, 111);"></path></g><g class="path" style="opacity: 1; transform-origin: 119.89px 0.703457px; animation: 1s linear -0.18s infinite normal forwards running fade-a24bd569-3728-4132-a4cf-438e485a2a8e;"><path d="M281.82-16.96L281.82-16.96L281.82-16.96Q281.82-20.79 283.01-24.12L283.01-24.12L283.01-24.12Q284.20-27.46 286.34-29.90L286.34-29.90L286.34-29.90Q288.49-32.34 291.49-33.73L291.49-33.73L291.49-33.73Q294.49-35.11 298.06-35.11L298.06-35.11L298.06-35.11Q301.03-35.11 303.43-34.09L303.43-34.09L303.43-34.09Q305.84-33.07 307.63-31.55L307.63-31.55L307.63-34.32L313.04-34.32L313.04-8.32L313.04-8.32Q313.04-5.81 314.26-5.05L314.26-5.05L314.26-5.05Q315.48-4.29 316.93-4.29L316.93-4.29L315.68 0.33L315.68 0.33Q309.34 0.33 308.02-4.82L308.02-4.82L308.02-4.82Q307.23-3.76 306.21-2.74L306.21-2.74L306.21-2.74Q305.18-1.72 303.86-0.92L303.86-0.92L303.86-0.92Q302.54-0.13 300.89 0.33L300.89 0.33L300.89 0.33Q299.24 0.79 297.26 0.79L297.26 0.79L297.26 0.79Q294.03 0.79 291.22-0.46L291.22-0.46L291.22-0.46Q288.42-1.72 286.34-4.03L286.34-4.03L286.34-4.03Q284.26-6.34 283.04-9.60L283.04-9.60L283.04-9.60Q281.82-12.87 281.82-16.96zM298.58-4.49L298.58-4.49L298.58-4.49Q301.09-4.49 303.34-5.68L303.34-5.68L303.34-5.68Q305.58-6.86 307.10-8.78L307.10-8.78L307.10-27.19L307.10-27.19Q305.32-28.45 303.17-29.21L303.17-29.21L303.17-29.21Q301.03-29.96 298.65-29.96L298.65-29.96L298.65-29.96Q296.27-29.96 294.29-29.04L294.29-29.04L294.29-29.04Q292.31-28.12 290.89-26.43L290.89-26.43L290.89-26.43Q289.48-24.75 288.68-22.37L288.68-22.37L288.68-22.37Q287.89-20.00 287.89-17.16L287.89-17.16L287.89-17.16Q287.89-14.39 288.68-12.04L288.68-12.04L288.68-12.04Q289.48-9.70 290.93-8.02L290.93-8.02L290.93-8.02Q292.38-6.34 294.33-5.41L294.33-5.41L294.33-5.41Q296.27-4.49 298.58-4.49" fill="#28166f" stroke="none" stroke-width="none" transform="translate(-179.4849853515625,17.863455810546874)" style="fill: rgb(40, 22, 111);"></path></g><g class="path" style="opacity: 1; transform-origin: 148.335px 0.703457px; animation: 1s linear -0.12s infinite normal forwards running fade-a24bd569-3728-4132-a4cf-438e485a2a8e;"><path d="M330.79-34.32L330.79 0L324.85 0L324.85-34.32L330.79-34.32" fill="#28166f" stroke="none" stroke-width="none" transform="translate(-179.4849853515625,17.863455810546874)" style="fill: rgb(40, 22, 111);"></path></g><g class="path" style="opacity: 1; transform-origin: 148.335px -26.4865px; animation: 1s linear -0.06s infinite normal forwards running fade-a24bd569-3728-4132-a4cf-438e485a2a8e;"><path d="M327.82-40.19L327.82-40.19L327.82-40.19Q326.11-40.19 324.88-41.41L324.88-41.41L324.88-41.41Q323.66-42.64 323.66-44.35L323.66-44.35L323.66-44.35Q323.66-46.27 324.79-47.39L324.79-47.39L324.79-47.39Q325.91-48.51 327.82-48.51L327.82-48.51L327.82-48.51Q329.54-48.51 330.76-47.29L330.76-47.29L330.76-47.29Q331.98-46.07 331.98-44.35L331.98-44.35L331.98-44.35Q331.98-42.44 330.86-41.32L330.86-41.32L330.86-41.32Q329.74-40.19 327.82-40.19" fill="#28166f" stroke="none" stroke-width="none" transform="translate(-179.4849853515625,17.863455810546874)" style="fill: rgb(40, 22, 111);"></path></g><g class="path" style="opacity: 1; transform-origin: 169.685px -3.68654px; animation: 1s linear 0s infinite normal forwards running fade-a24bd569-3728-4132-a4cf-438e485a2a8e;"><path d="M342.80-33.07L344.06-43.89L348.61-43.89L348.61-33.07L358.12-33.07L358.12-27.92L348.61-27.92L348.61-11.35L348.61-11.35Q348.61-9.44 349.04-8.12L349.04-8.12L349.04-8.12Q349.47-6.80 350.20-6.01L350.20-6.01L350.20-6.01Q350.92-5.21 351.94-4.85L351.94-4.85L351.94-4.85Q352.97-4.49 354.09-4.49L354.09-4.49L354.09-4.49Q355.74-4.49 357.19-5.02L357.19-5.02L357.19-5.02Q358.64-5.54 359.96-6.27L359.96-6.27L361.61-1.52L361.61-1.52Q360.29-0.73 358.05 0.03L358.05 0.03L358.05 0.03Q355.81 0.79 353.36 0.79L353.36 0.79L353.36 0.79Q348.41 0.79 345.54-2.44L345.54-2.44L345.54-2.44Q342.67-5.68 342.67-11.81L342.67-11.81L342.67-27.92L336.73-27.92L336.73-33.07L342.80-33.07" fill="#28166f" stroke="none" stroke-width="none" transform="translate(-179.4849853515625,17.863455810546874)" style="fill: rgb(40, 22, 111);"></path></g></g>
</g>
</g>
<style id="fade-a24bd569-3728-4132-a4cf-438e485a2a8e" data-anikit="">@keyframes fade-a24bd569-3728-4132-a4cf-438e485a2a8e
{
  0% {
    animation-timing-function: cubic-bezier(0.2722,0.4192,0.5689,0.7435);
    opacity: 1;
  }
  100% {
    opacity: 0;
  }
}</style></svg>